PathFileType	4	(X/Y/Z)	/home/nbianco/projects/addbio/data/HamnerRunning2013/Processed/subject04//results/MarkerData/run400.trc
DataRate	CameraRate	NumFrames	NumMarkers	Units	OrigDataRate	OrigDataStartFrame	OrigNumFrames
100	100	9	42	m	100	26	209
Frame#	Time	C7			CLAV			LACR			LASI			LCAL			LFAradius			LFAsuperior			LFAulna			LLEL			LMEL			LMT5			LPSI			LTB1			LTB2			LTB3			LTH1			LTH2			LTH3			LTOE			LUA1			LUA2			LUA3			RACR			RASI			RCAL			RFAradius			RFAsuperior			RFAulna			RLEL			RMEL			RMT5			RPSI			RTB1			RTB2			RTB3			RTH1			RTH2			RTH3			RTOE			RUA1			RUA2			RUA3		
		X1	Y1	Z1	X2	Y2	Z2	X3	Y3	Z3	X4	Y4	Z4	X5	Y5	Z5	X6	Y6	Z6	X7	Y7	Z7	X8	Y8	Z8	X9	Y9	Z9	X10	Y10	Z10	X11	Y11	Z11	X12	Y12	Z12	X13	Y13	Z13	X14	Y14	Z14	X15	Y15	Z15	X16	Y16	Z16	X17	Y17	Z17	X18	Y18	Z18	X19	Y19	Z19	X20	Y20	Z20	X21	Y21	Z21	X22	Y22	Z22	X23	Y23	Z23	X24	Y24	Z24	X25	Y25	Z25	X26	Y26	Z26	X27	Y27	Z27	X28	Y28	Z28	X29	Y29	Z29	X30	Y30	Z30	X31	Y31	Z31	X32	Y32	Z32	X33	Y33	Z33	X34	Y34	Z34	X35	Y35	Z35	X36	Y36	Z36	X37	Y37	Z37	X38	Y38	Z38	X39	Y39	Z39	X40	Y40	Z40	X41	Y41	Z41	X42	Y42	Z42

27	0.91	1.12223	1.59352	-0.324373	1.22733	1.49172	-0.327245	1.14543	1.57946	-0.496594	1.16115	1.03971	-0.468923	1.09238	0.199676	-0.392405	1.05671	1.30216	-0.565072	0.907251	1.40158	-0.598368	1.01104	1.2506	-0.582796	0.854082	1.4691	-0.581762	0.848482	1.45098	-0.489696	1.30028	0.131412	-0.459747	0.991177	1.10488	-0.401696	1.29003	0.439379	-0.427065	1.23873	0.389871	-0.468857	1.23866	0.309079	-0.413124	1.1118	0.918574	-0.543447	1.23349	0.847879	-0.509247	1.23008	0.710429	-0.498164	1.35685	0.117777	-0.373036	1.0317	1.55941	-0.558139	0.962572	1.55019	-0.498846	0.920896	1.50787	-0.569751	1.22165	1.54434	-0.182119	1.14768	1.02124	-0.223656	0.537794	0.294482	-0.308299	1.2896	1.36239	-0.211979	1.21463	1.28942	-0.0835584	1.32186	1.29708	-0.207238	1.14843	1.25097	-0.034406	1.07495	1.24397	-0.0995203	0.617599	0.0831553	-0.262031	0.985339	1.0993	-0.30851	0.793537	0.413699	-0.286263	0.695867	0.353956	-0.243569	0.672472	0.280843	-0.307962	1.04603	0.852331	-0.1796	1.03016	0.748841	-0.200811	0.900648	0.660536	-0.210993	0.651002	0.0883336	-0.335388	1.20606	1.4097	-0.0970205	1.14423	1.39649	-0.0684279	1.1668	1.33076	-0.0588104
28	0.92	1.12278	1.59766	-0.325342	1.22856	1.49667	-0.328494	1.14611	1.58326	-0.497442	1.16327	1.04375	-0.4675	1.13299	0.177897	-0.388012	1.06008	1.31084	-0.566651	0.908359	1.40828	-0.598805	1.01525	1.25861	-0.584612	0.854236	1.47438	-0.581723	0.849228	1.45549	-0.489798	1.34606	0.131786	-0.458296	0.993151	1.10865	-0.40026	1.30167	0.43776	-0.428233	1.25632	0.382075	-0.468364	1.26555	0.302725	-0.412082	1.11196	0.919515	-0.541592	1.23235	0.846732	-0.508363	1.22596	0.708939	-0.496953	1.404	0.118278	-0.370862	1.0326	1.56389	-0.558827	0.964045	1.55548	-0.498474	0.921297	1.51463	-0.570142	1.22325	1.55095	-0.184932	1.14997	1.02453	-0.22325	0.524669	0.319145	-0.306957	1.2883	1.36996	-0.213724	1.21763	1.29752	-0.0825294	1.31899	1.30411	-0.211245	1.15244	1.26056	-0.0308294	1.07562	1.2536	-0.0931963	0.582318	0.098296	-0.265833	0.988114	1.10374	-0.306907	0.781342	0.425157	-0.287915	0.682233	0.368386	-0.244261	0.654427	0.296459	-0.308287	1.04608	0.856922	-0.178613	1.02785	0.754031	-0.201726	0.896598	0.668805	-0.211763	0.616819	0.102876	-0.337814	1.20998	1.41866	-0.0971751	1.14814	1.40674	-0.0680702	1.17098	1.341	-0.0563726
29	0.93	1.12346	1.6009	-0.326305	1.2298	1.50063	-0.329802	1.14674	1.58603	-0.498713	1.16488	1.04642	-0.466319	1.1725	0.159558	-0.383581	1.06501	1.31737	-0.568692	0.910919	1.41166	-0.600563	1.02128	1.26428	-0.586983	0.855242	1.4761	-0.583194	0.85033	1.45636	-0.491481	1.388	0.135629	-0.45764	0.994624	1.11106	-0.399062	1.31047	0.435436	-0.428632	1.27207	0.374436	-0.467589	1.28983	0.297479	-0.41058	1.11128	0.917434	-0.539454	1.22976	0.842756	-0.508078	1.22104	0.705433	-0.496614	1.44731	0.122802	-0.369485	1.03324	1.56585	-0.55945	0.964642	1.55786	-0.499379	0.922062	1.51774	-0.571742	1.22464	1.55612	-0.187229	1.15151	1.02759	-0.222451	0.509329	0.344347	-0.304764	1.28699	1.37418	-0.215241	1.21926	1.30353	-0.0813051	1.31594	1.30773	-0.213944	1.15461	1.26869	-0.0272229	1.07579	1.26224	-0.087537	0.549975	0.117706	-0.270786	0.989932	1.1071	-0.305567	0.770627	0.434196	-0.289677	0.669291	0.382377	-0.245262	0.635936	0.312988	-0.309145	1.04671	0.86048	-0.177838	1.02756	0.757658	-0.203088	0.896215	0.673919	-0.212023	0.584062	0.122382	-0.342351	1.21252	1.42606	-0.0970745	1.15077	1.41542	-0.0674874	1.17381	1.34964	-0.0538533
30	0.94	1.1243	1.60327	-0.327409	1.23101	1.50356	-0.331009	1.14748	1.58774	-0.500328	1.16607	1.0477	-0.465351	1.20923	0.145041	-0.380027	1.07138	1.32174	-0.571085	0.914933	1.41197	-0.603509	1.02904	1.26766	-0.589745	0.857146	1.47459	-0.586071	0.852145	1.45401	-0.494565	1.425	0.142617	-0.457142	0.995673	1.11208	-0.398079	1.31635	0.432716	-0.428458	1.28501	0.367583	-0.466839	1.31068	0.293627	-0.409205	1.11025	0.913893	-0.537498	1.22655	0.836555	-0.508193	1.2153	0.700163	-0.497053	1.48572	0.130655	-0.368316	1.03388	1.56565	-0.560232	0.96464	1.55734	-0.50156	0.923425	1.51729	-0.574436	1.2258	1.55985	-0.188826	1.15265	1.03047	-0.221369	0.492762	0.370206	-0.301631	1.28568	1.37495	-0.216508	1.21933	1.30752	-0.0798494	1.31302	1.30785	-0.215065	1.15481	1.27539	-0.0237862	1.07499	1.26998	-0.0827746	0.521772	0.140562	-0.276095	0.990914	1.10927	-0.304541	0.761261	0.441572	-0.291371	0.657079	0.396544	-0.246251	0.617883	0.330725	-0.310263	1.0481	0.862713	-0.17771	1.02924	0.75961	-0.205129	0.899154	0.67588	-0.212109	0.554181	0.14601	-0.34823	1.21378	1.43185	-0.0966211	1.15246	1.42217	-0.0666959	1.17519	1.35645	-0.0514028
31	0.95	1.12525	1.60478	-0.32876	1.23215	1.50544	-0.331944	1.14845	1.58835	-0.502167	1.167	1.0477	-0.464546	1.24134	0.134417	-0.377777	1.07901	1.32396	-0.573661	0.920311	1.40955	-0.607446	1.03834	1.26877	-0.592836	0.860068	1.47025	-0.590217	0.854871	1.44887	-0.498903	1.45587	0.151762	-0.456559	0.996464	1.11182	-0.397265	1.31966	0.429983	-0.428593	1.29408	0.362059	-0.466521	1.32745	0.291372	-0.408857	1.10911	0.910212	-0.536169	1.22332	0.82875	-0.508509	1.20819	0.693199	-0.498032	1.51801	0.140488	-0.367079	1.03488	1.56369	-0.561973	0.964576	1.55422	-0.504952	0.92557	1.51382	-0.578171	1.2267	1.56214	-0.18979	1.15372	1.03301	-0.220137	0.477514	0.396829	-0.297982	1.28438	1.37236	-0.217504	1.21781	1.30967	-0.0781701	1.31019	1.30457	-0.214477	1.15298	1.28082	-0.0207813	1.07269	1.27683	-0.0790723	0.497071	0.165618	-0.281072	0.991439	1.11022	-0.303824	0.753712	0.448	-0.292865	0.646481	0.411176	-0.246977	0.601709	0.349394	-0.311145	1.05037	0.863392	-0.178473	1.03248	0.76006	-0.207607	0.904358	0.67529	-0.212545	0.527757	0.172205	-0.354053	1.21392	1.43593	-0.0958684	1.15319	1.427	-0.0658486	1.17498	1.36145	-0.0491975
32	0.96	1.12627	1.6054	-0.33041	1.23323	1.50618	-0.332542	1.14973	1.58782	-0.504087	1.16781	1.04669	-0.46385	1.26708	0.127402	-0.376618	1.08771	1.32406	-0.576255	0.926963	1.40468	-0.612199	1.049	1.26768	-0.596269	0.864181	1.4634	-0.5955	0.858533	1.44121	-0.504372	1.47947	0.161173	-0.456152	0.997132	1.11055	-0.396563	1.321	0.427551	-0.429672	1.29897	0.358009	-0.466751	1.3398	0.290542	-0.409896	1.10794	0.90697	-0.535602	1.21991	0.819929	-0.509097	1.19919	0.684768	-0.499298	1.54299	0.150406	-0.365987	1.03651	1.56016	-0.565148	0.964982	1.54896	-0.509427	0.928592	1.50795	-0.582905	1.22728	1.56307	-0.190403	1.15487	1.03492	-0.218918	0.466193	0.424198	-0.294511	1.28307	1.36658	-0.218203	1.21476	1.31013	-0.0763799	1.30717	1.29816	-0.212275	1.14917	1.28512	-0.0184027	1.06874	1.28261	-0.076584	0.474353	0.192083	-0.285157	0.991859	1.11002	-0.303287	0.748599	0.453644	-0.293969	0.638566	0.426119	-0.247316	0.588675	0.368319	-0.311309	1.05336	0.862552	-0.179923	1.03657	0.759338	-0.209871	0.910485	0.672914	-0.213577	0.504601	0.199503	-0.358441	1.21298	1.43829	-0.0950404	1.15261	1.43027	-0.0652	1.17303	1.3649	-0.0473625
33	0.97	1.12732	1.60507	-0.332339	1.23425	1.50569	-0.332861	1.15137	1.58611	-0.505935	1.16849	1.04505	-0.463215	1.28514	0.123204	-0.37591	1.09729	1.32206	-0.578773	0.934859	1.39753	-0.617636	1.06082	1.2645	-0.600023	0.869613	1.45426	-0.601774	0.863106	1.4313	-0.510828	1.495	0.168427	-0.456354	0.99767	1.10865	-0.395913	1.32091	0.425446	-0.431364	1.30041	0.355056	-0.46718	1.34765	0.290372	-0.411648	1.10688	0.904108	-0.53546	1.21579	0.810531	-0.510209	1.18875	0.675607	-0.500633	1.55988	0.158165	-0.365485	1.03896	1.55509	-0.569395	0.96617	1.54197	-0.514798	0.932549	1.50014	-0.588505	1.22755	1.56271	-0.190936	1.15608	1.03585	-0.217887	0.460296	0.452145	-0.2918	1.28171	1.35787	-0.218511	1.21026	1.30895	-0.0746577	1.30363	1.28892	-0.208823	1.14353	1.28826	-0.0167105	1.06344	1.28711	-0.075382	0.453051	0.219944	-0.287817	0.992255	1.10877	-0.302735	0.746267	0.458294	-0.2945	0.634037	0.441027	-0.247278	0.579479	0.386962	-0.310639	1.05667	0.860583	-0.181412	1.04082	0.757732	-0.211263	0.916632	0.669265	-0.214958	0.484577	0.227116	-0.360638	1.21087	1.43912	-0.094348	1.15031	1.43242	-0.0650541	1.16936	1.36708	-0.0459359
34	0.98	1.12834	1.60363	-0.334463	1.23521	1.50385	-0.333013	1.15345	1.58314	-0.507589	1.16893	1.04304	-0.462587	1.2949	0.120349	-0.37506	1.10761	1.31802	-0.581194	0.943996	1.3883	-0.623631	1.07359	1.25938	-0.603979	0.876376	1.44307	-0.608864	0.868583	1.41939	-0.518082	1.50238	0.171538	-0.457291	0.997958	1.10636	-0.395258	1.31968	0.423263	-0.432568	1.29975	0.352435	-0.467267	1.35118	0.289636	-0.412821	1.10614	0.901305	-0.535175	1.21089	0.800887	-0.511962	1.17865	0.666918	-0.501844	1.56865	0.161901	-0.365749	1.0423	1.54854	-0.573888	0.968193	1.53351	-0.520853	0.937516	1.49054	-0.59474	1.22747	1.56113	-0.191472	1.15721	1.03557	-0.217161	0.460077	0.48035	-0.290153	1.28019	1.34648	-0.21827	1.20445	1.30615	-0.0731549	1.29927	1.27713	-0.204649	1.13632	1.29018	-0.0156892	1.05721	1.2902	-0.0753801	0.434349	0.249447	-0.288618	0.992463	1.10651	-0.302025	0.74672	0.461805	-0.294416	0.633152	0.455566	-0.246985	0.574327	0.405194	-0.309473	1.05987	0.857974	-0.182243	1.04487	0.755337	-0.211477	0.922717	0.664488	-0.216123	0.468147	0.254861	-0.36065	1.20748	1.43877	-0.0937963	1.14622	1.43366	-0.0656051	1.16412	1.36817	-0.0449023
35	0.99	1.12929	1.60096	-0.336654	1.23608	1.50061	-0.333068	1.15598	1.57887	-0.509024	1.16901	1.04059	-0.461897	1.2965	0.116848	-0.37398	1.11855	1.31204	-0.583505	0.954307	1.37723	-0.63003	1.08713	1.2525	-0.60795	0.884373	1.43003	-0.616593	0.874947	1.40581	-0.525931	1.50235	0.16983	-0.458509	0.997894	1.10366	-0.394544	1.31737	0.420256	-0.4323	1.29788	0.349264	-0.466731	1.35064	0.287102	-0.412517	1.10591	0.898279	-0.534482	1.20607	0.791538	-0.514182	1.17121	0.659793	-0.502735	1.57007	0.160908	-0.366346	1.0465	1.54063	-0.578108	0.97094	1.52368	-0.527434	0.943555	1.47915	-0.601372	1.22694	1.55838	-0.191924	1.1581	1.03407	-0.216693	0.465127	0.508318	-0.289656	1.27829	1.33257	-0.217329	1.19752	1.3017	-0.0719304	1.29385	1.263	-0.200208	1.12789	1.29078	-0.0153409	1.05034	1.29187	-0.0763793	0.420305	0.28038	-0.287418	0.992341	1.10326	-0.301159	0.749802	0.464279	-0.293826	0.635924	0.469434	-0.246603	0.573203	0.423074	-0.308307	1.06277	0.854923	-0.182158	1.04889	0.75207	-0.210571	0.929233	0.658525	-0.216566	0.456146	0.282633	-0.358913	1.20286	1.43756	-0.0932064	1.14061	1.43397	-0.0667904	1.15755	1.36815	-0.0442633
